HIERARCHY
ROOT Hips
{
  OFFSET 5.84602e-005 68.8428 3.50346
  CHANNELS 6 Xposition Yposition Zposition Zrotation Xrotation Yrotation
  JOINT Spine
  {
    OFFSET 0 8.597 -4.6522
    CHANNELS 3 Zrotation Xrotation Yrotation
    JOINT Spine1
    {
      OFFSET 0 7.8454 0.4098
      CHANNELS 3 Zrotation Xrotation Yrotation
      JOINT Spine2
      {
        OFFSET 0 9.7078 -2.1609
        CHANNELS 3 Zrotation Xrotation Yrotation
        JOINT Neck
        {
          OFFSET 0 21.8761 -0.4549
          CHANNELS 3 Zrotation Xrotation Yrotation
          JOINT Head
          {
            OFFSET 0 12.3537 3.3602
            CHANNELS 3 Zrotation Xrotation Yrotation
            End Site
            {
              OFFSET 0.0001 18.9506 0.5657
            }
          }
        }
        JOINT LeftShoulder
        {
          OFFSET 2.2086 21.1115 7.2329
          CHANNELS 3 Zrotation Xrotation Yrotation
          JOINT LeftArm
          {
            OFFSET 13.1193 3.0282 -4.8998
            CHANNELS 3 Zrotation Xrotation Yrotation
            JOINT LeftForeArm
            {
              OFFSET 27.4081 -0.0973053 -0.2375
              CHANNELS 3 Zrotation Xrotation Yrotation
              JOINT LeftHand
              {
                OFFSET 22.8641 0.0662994 -0.1369
                CHANNELS 3 Zrotation Xrotation Yrotation
                JOINT LeftHandIndex1
                {
                  OFFSET 8.8614 0.775009 2.4612
                  CHANNELS 3 Zrotation Xrotation Yrotation
                  JOINT LeftHandIndex2
                  {
                    OFFSET 3.3146 -0.808304 0.5841
                    CHANNELS 3 Zrotation Xrotation Yrotation
                    JOINT LeftHandIndex3
                    {
                      OFFSET 2.2628 -0.552002 0.3989
                      CHANNELS 3 Zrotation Xrotation Yrotation
                      End Site
                      {
                        OFFSET 1.6102 -0.4807 0.2612
                      }
                    }
                  }
                }
                JOINT LeftHandMiddle1
                {
                  OFFSET 8.9937 0.895004 0.2143
                  CHANNELS 3 Zrotation Xrotation Yrotation
                  JOINT LeftHandMiddle2
                  {
                    OFFSET 4.0984 0.0113983 -0.0242
                    CHANNELS 3 Zrotation Xrotation Yrotation
                    JOINT LeftHandMiddle3
                    {
                      OFFSET 2.2716 0.00689697 -0.0138001
                      CHANNELS 3 Zrotation Xrotation Yrotation
                      End Site
                      {
                        OFFSET 2.0404 -0.1441 0.0027
                      }
                    }
                  }
                }
                JOINT LeftHandRing1
                {
                  OFFSET 8.5234 0.597198 -2.0164
                  CHANNELS 3 Zrotation Xrotation Yrotation
                  JOINT LeftHandRing2
                  {
                    OFFSET 3.7188 -0.188293 -0.2328
                    CHANNELS 3 Zrotation Xrotation Yrotation
                    JOINT LeftHandRing3
                    {
                      OFFSET 2.1191 -0.106598 -0.1332
                      CHANNELS 3 Zrotation Xrotation Yrotation
                      End Site
                      {
                        OFFSET 1.8737 -0.2304 -0.0886
                      }
                    }
                  }
                }
                JOINT LeftHandPinky1
                {
                  OFFSET 7.9094 -0.601089 -3.4825
                  CHANNELS 3 Zrotation Xrotation Yrotation
                  JOINT LeftHandPinky2
                  {
                    OFFSET 2.2874 -0.477005 -0.6314
                    CHANNELS 3 Zrotation Xrotation Yrotation
                    JOINT LeftHandPinky3
                    {
                      OFFSET 1.6774 -0.349396 -0.4633
                      CHANNELS 3 Zrotation Xrotation Yrotation
                      End Site
                      {
                        OFFSET 1.4888 -0.4091 -0.3416
                      }
                    }
                  }
                }
                JOINT LeftHandThumb1
                {
                  OFFSET 1.833 -1.3875 1.3896
                  CHANNELS 3 Zrotation Xrotation Yrotation
                  JOINT LeftHandThumb2
                  {
                    OFFSET 3.4129 -1.121 2.5732
                    CHANNELS 3 Zrotation Xrotation Yrotation
                    JOINT LeftHandThumb3
                    {
                      OFFSET 2.2474 -0.804199 1.6192
                      CHANNELS 3 Zrotation Xrotation Yrotation
                      End Site
                      {
                        OFFSET 1.6527 -0.5689 1.1317
                      }
                    }
                  }
                }
              }
            }
          }
        }
        JOINT RightShoulder
        {
          OFFSET -2.2086 21.1115 7.2329
          CHANNELS 3 Zrotation Xrotation Yrotation
          JOINT RightArm
          {
            OFFSET -13.1216 3.0287 -4.9007
            CHANNELS 3 Zrotation Xrotation Yrotation
            JOINT RightForeArm
            {
              OFFSET -27.4081 -0.0973053 -0.2375
              CHANNELS 3 Zrotation Xrotation Yrotation
              JOINT RightHand
              {
                OFFSET -22.8641 0.0664063 -0.1369
                CHANNELS 3 Zrotation Xrotation Yrotation
                JOINT RightHandIndex1
                {
                  OFFSET -8.8614 0.774994 2.4612
                  CHANNELS 3 Zrotation Xrotation Yrotation
                  JOINT RightHandIndex2
                  {
                    OFFSET -3.3146 -0.808304 0.5841
                    CHANNELS 3 Zrotation Xrotation Yrotation
                    JOINT RightHandIndex3
                    {
                      OFFSET -2.2628 -0.552002 0.3989
                      CHANNELS 3 Zrotation Xrotation Yrotation
                      End Site
                      {
                        OFFSET -1.6102 -0.4807 0.2612
                      }
                    }
                  }
                }
                JOINT RightHandMiddle1
                {
                  OFFSET -8.9937 0.894989 0.2143
                  CHANNELS 3 Zrotation Xrotation Yrotation
                  JOINT RightHandMiddle2
                  {
                    OFFSET -4.0984 0.0113983 -0.0242
                    CHANNELS 3 Zrotation Xrotation Yrotation
                    JOINT RightHandMiddle3
                    {
                      OFFSET -2.2716 0.00691223 -0.0138001
                      CHANNELS 3 Zrotation Xrotation Yrotation
                      End Site
                      {
                        OFFSET -2.0404 -0.1441 0.0027
                      }
                    }
                  }
                }
                JOINT RightHandRing1
                {
                  OFFSET -8.5234 0.597198 -2.0164
                  CHANNELS 3 Zrotation Xrotation Yrotation
                  JOINT RightHandRing2
                  {
                    OFFSET -3.7188 -0.188309 -0.2328
                    CHANNELS 3 Zrotation Xrotation Yrotation
                    JOINT RightHandRing3
                    {
                      OFFSET -2.1191 -0.106598 -0.1332
                      CHANNELS 3 Zrotation Xrotation Yrotation
                      End Site
                      {
                        OFFSET -1.8737 -0.2304 -0.0886
                      }
                    }
                  }
                }
                JOINT RightHandPinky1
                {
                  OFFSET -7.9094 -0.601105 -3.4825
                  CHANNELS 3 Zrotation Xrotation Yrotation
                  JOINT RightHandPinky2
                  {
                    OFFSET -2.2874 -0.477005 -0.6314
                    CHANNELS 3 Zrotation Xrotation Yrotation
                    JOINT RightHandPinky3
                    {
                      OFFSET -1.6774 -0.349396 -0.4633
                      CHANNELS 3 Zrotation Xrotation Yrotation
                      End Site
                      {
                        OFFSET -1.4888 -0.4091 -0.3416
                      }
                    }
                  }
                }
                JOINT RightHandThumb1
                {
                  OFFSET -1.833 -1.38751 1.3896
                  CHANNELS 3 Zrotation Xrotation Yrotation
                  JOINT RightHandThumb2
                  {
                    OFFSET -3.41299 -1.12099 2.5732
                    CHANNELS 3 Zrotation Xrotation Yrotation
                    JOINT RightHandThumb3
                    {
                      OFFSET -2.24741 -0.804108 1.6192
                      CHANNELS 3 Zrotation Xrotation Yrotation
                      End Site
                      {
                        OFFSET -1.6527 -0.5689 1.1317
                      }
                    }
                  }
                }
              }
            }
          }
        }
      }
    }
  }
  JOINT RightUpLeg
  {
    OFFSET -9.1966 3.8861 -0.7581
    CHANNELS 3 Zrotation Xrotation Yrotation
    JOINT RightLeg
    {
      OFFSET -0.7359 -41.0265 0
      CHANNELS 3 Zrotation Xrotation Yrotation
      JOINT RightFoot
      {
        OFFSET 0 -40.2855 0
        CHANNELS 3 Zrotation Xrotation Yrotation
        JOINT RightToeBase
        {
          OFFSET 0 -5.6122 11.7359
          CHANNELS 3 Zrotation Xrotation Yrotation
          End Site
          {
            OFFSET 0 0 7.8731
          }
        }
      }
    }
  }
  JOINT LeftUpLeg
  {
    OFFSET 9.1965 3.8864 -0.7581
    CHANNELS 3 Zrotation Xrotation Yrotation
    JOINT LeftLeg
    {
      OFFSET 0.7359 -41.0268 0
      CHANNELS 3 Zrotation Xrotation Yrotation
      JOINT LeftFoot
      {
        OFFSET 0 -40.2855 0
        CHANNELS 3 Zrotation Xrotation Yrotation
        JOINT LeftToeBase
        {
          OFFSET 0 -5.6122 11.7359
          CHANNELS 3 Zrotation Xrotation Yrotation
          End Site
          {
            OFFSET 0 0 7.8731
          }
        }
      }
    }
  }
}
MOTION
Frames:	7
Frame Time:	0.0333333
5.84602e-005 68.8428 3.50346 0 0 -0 0 0 -0 0 0 -0 0 0 -0 0 0 -0 0 0 -0 0 0 -0 0 0 -0 0 0 -0 0 0 -0 0 0 -0 0 0 -0 0 0 -0 0 0 -0 -0.0146107 -8.87603e-005 -2.63497e-007 2.99804e-018 -2.42657e-020 -1.42182e-022 0 0 -0 -0.0187562 -0.001176 5.858e-005 5.06224e-018 3.88251e-019 1.21329e-020 0 0 -0 -0.012269 -0.00324817 0.000675346 -1.74678e-018 3.88251e-019 -0 0 0 -0 0 0 -0 0 0 -0 0 0 -0 0 0 -0 0 0 -0 0 0 -0 0 0 -0 0 0 -0 0 0 -0 0 0 -0 0.0149955 -9.10982e-005 2.64101e-007 -9.69331e-018 1.21329e-020 -4.7394e-023 0 0 -0 0.0189956 -0.00119102 -5.96516e-005 -5.41541e-019 0 2.42657e-020 0 0 -0 0.0122698 -0.00324857 -0.000673756 -2.00796e-019 0 -1.94126e-019 0 0 -0 0 0 -0 0 0 -0 3.39842 1.33031 -0.0637918 -5.65207e-008 0.834868 -0.000436188 -3.39935 -2.16518 -0.0642563 -8.89002e-024 -1.18485e-023 -1.48106e-024 -3.39844 1.35642 0.0640283 -3.18788e-007 0.782166 -0.000588827 3.39931 -2.13858 0.0634662 1.1399e-023 0 -0 
1.53184 34.1919 16.817 132.722 -53.9372 -0.373962 -0.0518135 -3.67823 -0.213853 -0.117809 -7.35624 -0.432425 -0.117797 -7.35623 -0.432428 0.0655679 0.148745 0.0821116 5.26063e-006 0.122778 -4.93286e-006 11.4603 -0.577094 -6.41663 -11.5649 -13.1052 -24.6592 0.0386102 7.68618 -40.211 44.4495 0.0165406 0.0542673 -5.73749e-007 -3.12417e-007 -5.48227e-007 -0 0 3.57812e-015 -1.43437e-006 -7.81042e-007 -1.37057e-006 -5.73749e-007 -3.12417e-007 -5.48227e-007 -0.0145751 -8.03537e-005 -1.76739e-006 -1.43439e-006 -7.80868e-007 -1.37067e-006 -5.73749e-007 -3.12417e-007 -5.48227e-007 -0.0188284 -0.00117364 5.55996e-005 -1.4344e-006 -7.80817e-007 -1.37068e-006 -5.73749e-007 -3.12417e-007 -5.48227e-007 -0.0121711 -0.00322446 0.00067195 -1.43443e-006 -7.80891e-007 -1.37061e-006 -5.73749e-007 -3.12417e-007 -5.48227e-007 -0 0 3.57812e-015 -1.43437e-006 -7.81042e-007 -1.37057e-006 13.8261 -0.149691 -1.25444 8.3127 8.75774 33.9331 -10.5064 -10.8819 23.2901 -44.4656 -0.00648151 -0.0370608 -3.18055e-015 3.18055e-015 -0 1.27125e-007 -4.03569e-006 2.61075e-006 3.18055e-015 1.59028e-015 -2.38542e-015 -3.18055e-015 3.18055e-015 -0 0.0149698 -8.90671e-005 8.23613e-007 3.18055e-015 0 -1.19271e-015 -3.18055e-015 3.18055e-015 -0 0.0189792 -0.00118863 -5.73713e-005 8.82781e-032 6.36111e-015 -7.95139e-016 -3.18055e-015 3.18055e-015 -0 0.0122754 -0.00324272 -0.000672343 -9.54166e-015 7.95139e-015 -3.97569e-016 -3.18055e-015 3.18055e-015 -0 1.27125e-007 -4.03569e-006 2.61075e-006 3.18055e-015 1.59028e-015 -2.38542e-015 -8.58818 -43.3948 -24.6549 3.97597 35.141 -2.71579 -6.31014 36.9094 9.217 -4.07428e-006 -4.00853e-007 -2.90264e-006 8.20784 -41.652 23.9618 -3.87931 33.5268 2.44823 5.33968 36.0432 -8.76596 -4.698e-006 2.60466e-007 -1.97762e-006 
1.2419 12.837 21.1269 -168.713 -78.8892 -1.63807 -0.074192 -5.27372 -0.312336 -0.178544 -10.5469 -0.635627 -0.178544 -10.5469 -0.635632 0.109771 0.268537 0.103077 -1.19064e-006 0.153735 1.16756e-007 16.3387 -0.540928 -9.68749 -20.3374 -17.0309 -36.499 3.05655 7.72917 -58.1118 64.4225 -0.0579087 -0.189926 4.96962e-017 -3.07495e-015 -7.95139e-016 -1.04362e-015 3.72721e-017 -1.59028e-015 4.96962e-017 -3.24889e-015 -0 4.96962e-017 -3.07495e-015 -7.95139e-016 -0.0146213 -8.62021e-005 2.07064e-006 5.96354e-016 -9.2e-015 7.95139e-016 4.96962e-017 -3.07495e-015 -7.95139e-016 -0.0187673 -0.00117495 6.80564e-005 -2.98177e-016 8.06942e-015 1.59028e-015 4.96962e-017 -3.07495e-015 -7.95139e-016 -0.0122515 -0.00324375 0.000681092 1.49089e-016 7.0817e-015 7.95139e-016 4.96962e-017 -3.07495e-015 -7.95139e-016 -1.04362e-015 3.72721e-017 -1.59028e-015 4.96962e-017 -3.24889e-015 -0 20.2287 -0.0589613 -1.62797 8.96275 9.99886 49.3769 -12.3826 -14.2778 34.1125 -64.3815 0.0225775 0.129725 1.49394e-006 -8.10613e-007 1.05191e-007 1.49394e-006 -8.10613e-007 1.05192e-007 1.19271e-015 -7.95139e-016 -1.27222e-014 1.49394e-006 -8.10613e-007 1.05191e-007 0.0149997 -9.16089e-005 5.06225e-006 -1.65521e-031 -9.93923e-016 -9.54166e-015 1.49394e-006 -8.10613e-007 1.05191e-007 0.0189886 -0.00119011 -5.57737e-005 -1.98785e-015 -2.78299e-015 -6.36111e-015 1.49394e-006 -8.10613e-007 1.05191e-007 0.0122597 -0.00324547 -0.00067082 -3.97569e-016 4.77083e-015 3.18055e-015 1.49394e-006 -8.10613e-007 1.05191e-007 1.49394e-006 -8.10613e-007 1.05192e-007 1.19271e-015 -7.95139e-016 -1.27222e-014 -31.8672 -54.9045 -48.6418 5.82176 49.5584 -3.36377 -13.0255 53.4285 16.4189 -9.28839e-008 -3.20904e-006 5.04686e-007 30.4313 -54.8549 47.2367 -5.91028 47.7589 3.81911 12.8868 53.3843 -16.141 -9.17829e-007 -1.30026e-007 1.2286e-006 
0.807832 17.2536 20.0871 178.553 -74.866 -1.0969 -0.0718492 -4.78601 -0.289556 -0.168959 -9.57161 -0.588255 -0.168959 -9.57159 -0.588255 0.132961 0.359664 0.0628864 1.83748e-007 0.0928583 1.78255e-007 14.7321 0.0965923 -9.81133 -18.0917 -16.4128 -33.5933 2.32537 7.96447 -53.2563 59.9171 -0.223219 -0.732701 4.19283e-007 4.84256e-007 -2.66656e-007 -1.59028e-015 1.59028e-015 -3.97569e-016 1.59028e-015 9.93923e-016 -0 4.19283e-007 4.84256e-007 -2.66656e-007 -0.0146065 -8.78882e-005 -4.05615e-006 -1.59028e-015 -1.09332e-015 -3.97569e-016 4.19283e-007 4.84256e-007 -2.66656e-007 -0.0187861 -0.00117938 5.70935e-005 1.51728e-032 1.09332e-015 -7.95139e-016 4.19283e-007 4.84256e-007 -2.66656e-007 -0.012265 -0.00324926 0.000680032 1.59028e-015 1.98785e-015 -7.95139e-016 4.19283e-007 4.84256e-007 -2.66656e-007 -1.59028e-015 1.59028e-015 -3.97569e-016 1.59028e-015 9.93923e-016 -0 19.2088 0.272633 -1.12094 8.8634 9.83802 45.5145 -12.0393 -13.603 31.1921 -59.7481 0.0874222 0.500318 -1.59028e-015 3.18055e-015 -0 3.53113e-031 3.18055e-015 -6.36111e-015 -1.59028e-015 1.59028e-015 -0 -1.59028e-015 3.18055e-015 -0 0.0149866 -9.31734e-005 -6.35116e-006 -1.59028e-015 -1.59028e-015 -3.18055e-015 -1.59028e-015 3.18055e-015 -0 0.0189931 -0.00119007 -5.92898e-005 4.77083e-015 1.59028e-015 -9.54166e-015 -1.59028e-015 3.18055e-015 -0 0.0122979 -0.00325697 -0.00067993 -1.59028e-015 -4.77083e-015 6.36111e-015 -1.59028e-015 3.18055e-015 -0 3.53113e-031 3.18055e-015 -6.36111e-015 -1.59028e-015 1.59028e-015 -0 -23.2076 -51.3969 -39.6663 5.3819 45.5133 -3.02559 -10.0197 50.0343 13.171 3.4941e-007 3.35097e-006 3.92085e-007 22.4539 -51.0419 38.7596 -5.55254 44.4979 3.40905 9.64627 49.3702 -12.8457 6.76976e-008 -3.37303e-008 1.99562e-007 
0.806002 16.9406 19.9316 178.499 -76.1145 -1.16391 -0.0739378 -4.67646 -0.288815 -0.172485 -9.35247 -0.586655 -0.172485 -9.35246 -0.586655 0.160018 0.456024 0.0337576 2.13837e-007 0.0486976 1.70811e-007 14.3105 0.632247 -10.504 -17.9864 -16.4864 -33.4073 2.32972 7.96605 -52.5225 59.8608 -0.371519 -1.22162 3.18055e-015 -1.49089e-015 -7.95139e-016 1.59028e-015 -1.68967e-015 3.97569e-016 1.93108e-032 -1.39149e-015 7.95139e-016 3.18055e-015 -1.49089e-015 -7.95139e-016 -0.0146079 -8.86005e-005 -1.28059e-006 -1.59028e-015 9.93923e-017 -7.95139e-016 3.18055e-015 -1.49089e-015 -7.95139e-016 -0.0187678 -0.00117729 5.44102e-005 3.18055e-015 2.08724e-015 -0 3.18055e-015 -1.49089e-015 -7.95139e-016 -0.0122607 -0.00324686 0.000675237 3.18055e-015 -4.96962e-016 -7.95139e-016 3.18055e-015 -1.49089e-015 -7.95139e-016 1.59028e-015 -1.68967e-015 3.97569e-016 1.93108e-032 -1.39149e-015 7.95139e-016 19.537 0.562939 -0.775726 8.81733 9.76855 45.1637 -11.9932 -13.5724 30.7968 -59.5786 0.146945 0.833766 -1.59028e-015 1.59028e-015 -0 -3.18055e-015 1.59028e-015 1.27222e-014 -1.59028e-015 1.59028e-015 -0 -1.59028e-015 1.59028e-015 -0 0.0150068 -9.11905e-005 6.02805e-008 2.64834e-031 1.59028e-015 -9.54166e-015 -1.59028e-015 1.59028e-015 -0 0.0190077 -0.00119071 -5.81838e-005 -1.59028e-015 -1.59028e-015 -6.36111e-015 -1.59028e-015 1.59028e-015 -0 0.0122679 -0.00324794 -0.000672122 2.20952e-007 2.07239e-007 5.51815e-007 -1.59028e-015 1.59028e-015 -0 -3.18055e-015 1.59028e-015 1.27222e-014 -1.59028e-015 1.59028e-015 -0 -21.9729 -50.0446 -37.9714 5.42979 45.0767 -3.02524 -9.29164 50.1193 12.4644 1.86742e-007 3.27118e-006 -1.10799e-007 21.2087 -49.6437 37.0966 -5.56126 43.9893 4.51693 10.2641 49.2989 -13.8843 6.76816e-008 -3.37855e-008 1.99556e-007 
0.804209 16.6279 19.7723 178.434 -77.3663 -1.24296 -0.0760207 -4.56644 -0.288044 -0.175999 -9.13243 -0.584987 -0.175999 -9.1324 -0.584987 0.187132 0.552254 0.00457551 1.92922e-007 0.00452242 1.86021e-007 13.8947 1.17384 -11.194 -17.8808 -16.5597 -33.221 2.33406 7.96761 -51.7881 59.8032 -0.51941 -1.71092 1.59028e-015 -9.93923e-016 -0 1.59028e-015 -1.78906e-015 7.95139e-016 5.86222e-032 -1.68967e-015 1.98785e-015 1.59028e-015 -9.93923e-016 -0 -0.0146309 -8.76718e-005 -1.79635e-006 -1.79315e-032 -2.5842e-015 -3.97569e-016 1.59028e-015 -9.93923e-016 -0 -0.0187636 -0.00117752 5.77181e-005 0 3.37934e-015 -0 1.59028e-015 -9.93923e-016 -0 -0.0122689 -0.00324777 0.000680652 -2.89663e-032 4.17448e-015 3.97569e-016 1.59028e-015 -9.93923e-016 -0 1.59028e-015 -1.78906e-015 7.95139e-016 5.86222e-032 -1.68967e-015 1.98785e-015 19.8637 0.855377 -0.431988 8.77077 9.69932 44.8128 -11.9469 -13.5421 30.4014 -59.4093 0.207476 1.1671 3.18055e-015 -4.77083e-015 -3.18055e-015 7.41728e-007 -4.04775e-007 1.08619e-007 -3.18055e-015 -3.18055e-015 -0 3.18055e-015 -4.77083e-015 -3.18055e-015 0.0149805 -9.10587e-005 -4.84437e-007 4.77083e-015 -1.59028e-015 3.18055e-015 3.18055e-015 -4.77083e-015 -3.18055e-015 0.0189871 -0.00118902 -5.7916e-005 -6.36111e-015 0 -3.18055e-015 3.18055e-015 -4.77083e-015 -3.18055e-015 0.0122358 -0.003237 -0.000670699 1.59028e-015 1.90833e-014 -3.18055e-015 3.18055e-015 -4.77083e-015 -3.18055e-015 7.41728e-007 -4.04775e-007 1.08619e-007 -3.18055e-015 -3.18055e-015 -0 -20.8267 -48.6632 -36.3589 5.4778 44.6397 -3.02441 -8.56055 50.1986 11.7547 -5.86107e-007 1.09473e-006 -7.27424e-008 20.0527 -48.216 35.517 -5.57087 43.4801 4.47203 9.56008 49.4283 -13.1796 1.67217e-006 3.15501e-006 3.99088e-007 
0.802456 16.3155 19.6091 178.352 -78.6212 -1.33808 -0.0780978 -4.45603 -0.28724 -0.1795 -8.9115 -0.583252 -0.1795 -8.91152 -0.583252 0.214307 0.648079 -0.0246524 1.02782e-007 -0.0396473 5.70974e-008 13.4848 1.72129 -11.8812 -17.775 -16.6326 -33.0345 2.33838 7.96929 -51.0531 59.7444 -0.666861 -2.20058 -1.59028e-015 1.98785e-016 -7.95139e-016 2.06902e-033 2.98177e-016 -3.97569e-016 5.51738e-033 -3.97569e-016 7.95139e-016 -1.59028e-015 1.98785e-016 -7.95139e-016 -0.0145919 -8.76899e-005 5.15018e-006 4.34628e-007 4.85341e-007 -2.52614e-007 -1.59028e-015 1.98785e-016 -7.95139e-016 -0.0187841 -0.00117899 6.23428e-005 -3.18055e-015 -1.88845e-015 7.95139e-016 -1.59028e-015 1.98785e-016 -7.95139e-016 -0.012228 -0.00323866 0.00067539 4.77083e-015 1.09332e-015 1.19271e-015 -1.59028e-015 1.98785e-016 -7.95139e-016 2.06902e-033 2.98177e-016 -3.97569e-016 5.51738e-033 -3.97569e-016 7.95139e-016 20.1887 1.15001 -0.0897482 8.72381 9.63036 44.4618 -11.9004 -13.5121 30.0059 -59.2404 0.269014 1.50035 2.06366e-007 2.15617e-007 5.39994e-007 2.37601e-007 6.53781e-007 2.69636e-006 1.43125e-014 -1.90833e-014 1.27222e-014 2.06366e-007 2.15617e-007 5.39994e-007 0.0149936 -9.26559e-005 -1.04178e-005 4.77083e-015 1.59028e-015 -9.54166e-015 2.06366e-007 2.15617e-007 5.39994e-007 0.0190124 -0.00118978 -5.40771e-005 -1.59028e-015 1.59028e-015 3.18055e-015 2.06366e-007 2.15617e-007 5.39994e-007 0.0122175 -0.00323391 -0.000676514 -1.41245e-030 -6.36111e-015 -1.27222e-014 2.06366e-007 2.15617e-007 5.39994e-007 2.37601e-007 6.53781e-007 2.69636e-006 1.43125e-014 -1.90833e-014 1.27222e-014 -19.763 -47.2548 -34.8223 5.52601 44.2018 -4.16192 -9.17807 50.1039 12.801 -1.54475e-006 3.23611e-006 1.25341e-008 18.98 -46.7611 34.0144 -5.58141 42.9703 4.42729 8.8517 49.552 -12.4703 1.35263e-007 -6.77185e-008 3.99114e-007 
